<?xml version="1.0" standalone="no"?>
<!DOCTYPE svg PUBLIC "-//W3C//DTD SVG 20010904//EN"
 "http://www.w3.org/TR/2001/REC-SVG-20010904/DTD/svg10.dtd">
<svg version="1.0" xmlns="http://www.w3.org/2000/svg"
 width="740.000000pt" height="740.000000pt" viewBox="0 0 740.000000 740.000000"
 preserveAspectRatio="xMidYMid meet">

<g transform="translate(0.000000,740.000000) scale(0.100000,-0.100000)"
fill="#000000" stroke="none">
<path d="M1983 5262 c-85 -115 -178 -299 -232 -457 -39 -117 -91 -344 -91
-400 0 -32 56 -112 125 -176 90 -85 184 -133 315 -164 119 -27 116 -31 56 98
-81 170 -123 306 -152 492 -18 113 -22 489 -5 540 7 23 10 1 10 -95 4 -476
124 -843 406 -1245 31 -44 77 -111 103 -149 l47 -69 52 58 c104 114 180 308
205 522 l12 104 -105 96 c-379 352 -536 537 -684 807 -20 36 -38 66 -39 66 -1
0 -12 -13 -23 -28z"/>
<path d="M5354 5218 c-51 -99 -172 -276 -254 -373 -75 -88 -321 -333 -443
-441 l-78 -69 5 -100 c10 -206 92 -420 213 -555 14 -17 32 -30 38 -30 13 0
132 165 224 310 158 249 240 443 290 690 27 135 32 181 45 395 l12 190 8 -168
c12 -237 -4 -411 -55 -609 -23 -89 -84 -249 -129 -338 -17 -34 -29 -65 -25
-68 12 -13 170 28 242 62 101 48 186 116 244 195 56 75 58 91 33 222 -48 255
-132 468 -273 686 -25 40 -49 73 -52 73 -4 0 -24 -33 -45 -72z"/>
<path d="M1650 4205 c0 -236 52 -487 148 -715 39 -93 128 -255 169 -308 69
-91 419 -175 656 -157 128 10 227 27 227 39 0 29 -159 276 -400 621 -69 99
-145 210 -168 246 l-42 66 -74 6 c-95 8 -233 57 -316 112 -63 42 -180 151
-180 167 0 4 -4 8 -10 8 -6 0 -10 -35 -10 -85z"/>
<path d="M5708 4248 c-109 -133 -347 -248 -513 -248 -29 0 -37 -6 -61 -47 -15
-27 -45 -71 -66 -100 -21 -29 -38 -54 -38 -57 0 -3 -70 -104 -155 -225 -85
-122 -155 -224 -155 -228 0 -3 -11 -20 -23 -37 -31 -41 -135 -213 -142 -235
-5 -15 7 -20 82 -32 238 -37 542 -1 730 88 47 23 59 35 107 113 180 290 282
645 274 944 l-3 109 -37 -45z"/>
<path d="M2876 4211 c-16 -142 -58 -285 -116 -401 -36 -72 -108 -168 -140
-188 -11 -7 -20 -17 -20 -23 0 -6 33 -61 74 -122 190 -285 351 -622 451 -940
20 -65 35 -120 33 -122 -2 -3 -10 12 -17 33 -31 88 -118 288 -183 417 -39 77
-71 141 -72 142 -1 1 -42 -5 -91 -13 -55 -10 -153 -16 -250 -16 -171 -1 -266
12 -407 56 l-78 24 22 -32 c35 -49 206 -217 286 -280 200 -157 398 -265 636
-346 155 -53 176 -54 188 -15 14 47 67 279 88 388 95 479 51 851 -138 1171
-47 79 -188 261 -234 304 l-25 23 -7 -60z"/>
<path d="M4447 4194 c-273 -293 -405 -686 -369 -1102 17 -197 54 -392 132
-700 4 -19 11 -36 14 -40 10 -10 210 55 340 111 139 60 295 151 423 245 86 64
353 321 353 340 0 5 -41 -3 -92 -19 -99 -31 -283 -59 -388 -59 -36 0 -120 7
-185 16 -66 9 -128 17 -138 18 -12 1 -29 -19 -54 -64 -41 -74 -177 -373 -212
-468 -42 -111 -33 -59 15 89 104 324 222 569 430 895 46 73 84 136 84 141 0 5
-16 25 -36 44 -112 105 -215 351 -231 547 -3 39 -10 72 -15 72 -5 0 -37 -30
-71 -66z"/>
<path d="M5685 2738 l-57 -63 68 -62 c37 -35 66 -64 63 -66 -89 -63 -109 -92
-109 -157 0 -61 39 -127 119 -203 123 -116 216 -145 294 -92 44 31 67 71 67
120 0 32 3 36 20 30 27 -8 79 19 113 61 31 37 32 36 -25 103 -23 26 -31 30
-46 22 -16 -9 -49 17 -226 179 -114 105 -211 190 -215 190 -5 0 -35 -28 -66
-62z m285 -368 l85 -79 -27 -27 c-26 -26 -29 -27 -54 -13 -40 21 -154 134
-154 152 0 16 37 47 55 47 5 -1 48 -36 95 -80z"/>
<path d="M5434 2251 c-50 -23 -120 -84 -140 -122 -24 -48 -18 -128 16 -195 61
-122 169 -214 253 -214 70 0 156 51 209 124 52 73 32 173 -58 292 -94 123
-182 159 -280 115z m93 -168 c48 -53 113 -151 113 -172 0 -30 -43 -49 -66 -30
-25 20 -134 169 -134 182 0 16 31 47 47 47 8 0 26 -12 40 -27z"/>
<path d="M4564 1945 c-89 -29 -169 -55 -177 -58 -16 -6 -16 -6 137 -479 l57
-176 88 29 88 30 -39 117 c-21 64 -38 122 -38 129 0 7 26 20 58 29 31 10 60
21 65 24 8 7 -19 109 -33 124 -5 5 -36 -1 -71 -13 -35 -11 -66 -18 -70 -14 -8
10 -29 72 -29 88 0 7 33 22 73 34 103 31 99 25 77 110 -10 40 -20 74 -22 75
-2 2 -76 -20 -164 -49z"/>
<path d="M5033 1985 c-101 -31 -167 -90 -184 -163 -24 -109 98 -340 198 -372
78 -26 207 19 267 93 28 36 31 45 30 110 0 61 -6 84 -36 149 -47 100 -113 172
-173 187 -52 13 -49 13 -102 -4z m89 -215 c21 -35 44 -84 52 -107 14 -41 14
-45 -5 -64 -18 -18 -23 -19 -42 -6 -12 7 -44 57 -71 110 -49 95 -49 97 -31
117 31 34 56 21 97 -50z"/>
</g>
</svg>
