<?xml version="1.0" encoding="utf-8"?>
<!-- Generator: Adobe Illustrator 27.5.0, SVG Export Plug-In . SVG Version: 6.00 Build 0)  -->
<svg version="1.1" xmlns="http://www.w3.org/2000/svg" xmlns:xlink="http://www.w3.org/1999/xlink" x="0px" y="0px"
	 viewBox="0 0 841.89 566.929" style="enable-background:new 0 0 841.89 566.929;" xml:space="preserve">
<g id="BG">
	<rect y="0" style="fill:#FFFFFF;" width="841.89" height="566.929"/>
</g>
<g id="graphics">
	<g>
		<path style="fill:#6C6D6D;" d="M316.928,386.773h4.958c1.36,0,2.527,0.51,3.499,1.53c0.971,1.021,1.458,2.165,1.458,3.428v28.435
			c0,6.904-1.993,11.57-5.979,14c-3.987,2.431-8.312,3.646-12.979,3.646c-2.529,0-5.008-0.415-7.438-1.239
			c-2.431-0.825-4.374-2.162-5.833-4.011c-2.82-3.595-4.229-8.505-4.229-14.728c0-6.125,1.409-11.033,4.229-14.73
			c2.917-3.791,6.658-5.685,11.229-5.685c2.43,0,4.569,0.487,6.417,1.457c1.944,1.167,3.5,2.676,4.666,4.521V386.773z
			 M300.303,417.397c0,3.89,0.729,6.853,2.188,8.895c1.459,2.042,3.547,3.062,6.271,3.062c2.624,0,4.666-1.02,6.123-3.062
			c1.361-2.042,2.042-5.006,2.042-8.895c0-3.5-0.729-6.271-2.187-8.313c-1.557-1.943-3.646-2.916-6.271-2.916
			c-2.529,0-4.52,1.021-5.979,3.061C301.033,411.176,300.303,413.897,300.303,417.397z"/>
		<path style="fill:#6C6D6D;" d="M357.066,425.125h7.29c-1.07,4.084-3.112,7.196-6.124,9.334c-3.015,2.236-6.806,3.353-11.375,3.353
			c-5.541,0-9.868-1.798-12.979-5.396c-3.112-3.5-4.666-8.506-4.666-15.02c0-6.221,1.506-11.083,4.52-14.582
			c3.111-3.597,7.438-5.396,12.979-5.396c5.833,0,10.354,1.749,13.561,5.249c3.111,3.598,4.667,8.604,4.667,15.021
			c0,0.39,0,0.729,0,1.021c0,0.291,0,0.488,0,0.583c0,0.487-0.05,0.827-0.146,1.021h-25.228c0.096,3.016,0.825,5.25,2.188,6.709
			c1.262,1.557,3.158,2.332,5.688,2.332c1.651,0,3.062-0.338,4.228-1.02c0.292-0.096,0.559-0.267,0.802-0.511
			c0.242-0.241,0.511-0.511,0.802-0.802c0.095-0.292,0.46-0.68,1.093-1.167C354.999,425.369,355.899,425.125,357.066,425.125z
			 M339.566,413.75h14.875c-0.196-2.624-0.874-4.568-2.041-5.832c-1.265-1.36-3.063-2.042-5.395-2.042
			c-2.14,0-3.891,0.682-5.25,2.042C340.391,409.279,339.662,411.224,339.566,413.75z"/>
		<path style="fill:#6C6D6D;" d="M368.476,386.919h5.249c1.361,0,2.526,0.463,3.5,1.385c0.971,0.925,1.458,2.066,1.458,3.428v45.352
			h-10.207V386.919z"/>
		<path style="fill:#6C6D6D;" d="M382.801,386.919h5.249c1.361,0,2.527,0.487,3.5,1.457c0.971,0.974,1.459,2.141,1.459,3.501v3.061
			h-10.208V386.919z M382.801,398.293h5.249c1.361,0,2.527,0.487,3.5,1.458c0.971,0.974,1.459,2.14,1.459,3.5v33.832h-10.208
			V398.293z"/>
		<path style="fill:#6C6D6D;" d="M418.856,437.083h-10.354l-13.562-38.79h10.792l7.728,27.27l6.854-23.77
			c0.777-2.334,2.334-3.5,4.666-3.5h7.585L418.856,437.083z"/>
		<path style="fill:#6C6D6D;" d="M458.518,425.125h7.291c-1.069,4.084-3.111,7.196-6.124,9.334
			c-3.015,2.236-6.806,3.353-11.375,3.353c-5.54,0-9.868-1.798-12.98-5.396c-3.11-3.5-4.665-8.506-4.665-15.02
			c0-6.221,1.507-11.083,4.52-14.582c3.111-3.597,7.438-5.396,12.979-5.396c5.834,0,10.353,1.749,13.563,5.249
			c3.111,3.598,4.665,8.604,4.665,15.021c0,0.39,0,0.729,0,1.021c0,0.291,0,0.488,0,0.583c0,0.487-0.05,0.827-0.146,1.021h-25.228
			c0.097,3.016,0.825,5.25,2.188,6.709c1.261,1.557,3.156,2.332,5.687,2.332c1.652,0,3.063-0.338,4.229-1.02
			c0.292-0.096,0.559-0.267,0.802-0.511c0.242-0.241,0.511-0.511,0.803-0.802c0.094-0.292,0.458-0.68,1.092-1.167
			C456.45,425.369,457.351,425.125,458.518,425.125z M441.019,413.75h14.874c-0.196-2.624-0.873-4.568-2.04-5.832
			c-1.265-1.36-3.063-2.042-5.396-2.042c-2.141,0-3.891,0.682-5.249,2.042C441.844,409.279,441.115,411.224,441.019,413.75z"/>
		<path style="fill:#6C6D6D;" d="M469.49,437.083v-18.811c0-3.792,0.559-6.975,1.678-9.552c1.116-2.575,2.648-4.642,4.594-6.197
			c1.845-1.459,4.01-2.527,6.489-3.209c2.479-0.68,5.032-1.021,7.655-1.021c0.193,0,0.438,0,0.729,0c0.291,0,0.533,0,0.729,0v10.354
			h-3.354c-2.819,0-4.909,0.682-6.27,2.042c-1.363,1.362-2.042,3.499-2.042,6.416v19.979H469.49z"/>
		<path style="fill:#6C6D6D;" d="M499.42,450.791v-8.021h2.771c1.944,0,3.476-0.463,4.595-1.386
			c1.114-0.925,1.333-2.405,0.654-4.447l-13.561-38.645h11.229l7.874,27.415l6.854-23.915c0.583-2.334,2.138-3.5,4.667-3.5h6.999
			l-14.873,44.186c-1.167,3.208-2.625,5.492-4.375,6.854c-1.751,1.166-4.62,1.749-8.604,1.749c-0.292,0-0.634,0-1.022,0
			c-0.39,0-0.729,0-1.02,0c-0.292-0.098-0.657-0.171-1.095-0.219C500.076,450.814,499.712,450.791,499.42,450.791z"/>
	</g>
	<g>
		<path style="fill:#8C9799;" d="M344.033,453.883c-0.211-0.412-0.495-0.753-0.85-1.022c-0.355-0.269-0.763-0.465-1.224-0.59
			c-0.461-0.125-0.95-0.188-1.469-0.188c-0.403,0-0.811,0.043-1.224,0.13c-0.413,0.086-0.792,0.23-1.138,0.432
			c-0.346,0.202-0.624,0.466-0.836,0.792c-0.211,0.326-0.316,0.729-0.316,1.21c0,0.403,0.101,0.744,0.302,1.022
			c0.202,0.279,0.456,0.515,0.764,0.706c0.307,0.191,0.643,0.35,1.008,0.475c0.365,0.125,0.7,0.227,1.007,0.303l2.42,0.548
			c0.519,0.076,1.031,0.216,1.541,0.418c0.508,0.201,0.959,0.466,1.353,0.792c0.394,0.325,0.716,0.73,0.966,1.209
			c0.249,0.48,0.374,1.047,0.374,1.699c0,0.807-0.182,1.494-0.547,2.06c-0.366,0.567-0.832,1.027-1.397,1.383
			c-0.567,0.355-1.206,0.609-1.916,0.764c-0.711,0.153-1.411,0.23-2.103,0.23c-1.747,0-3.164-0.413-4.249-1.239
			c-1.085-0.825-1.705-2.15-1.858-3.975h1.814c0.077,1.229,0.523,2.156,1.34,2.78c0.816,0.624,1.83,0.936,3.039,0.936
			c0.442,0,0.897-0.047,1.368-0.145c0.471-0.096,0.907-0.259,1.311-0.489c0.403-0.23,0.734-0.523,0.994-0.878
			c0.26-0.355,0.389-0.792,0.389-1.311c0-0.442-0.09-0.813-0.273-1.11c-0.183-0.297-0.428-0.547-0.734-0.748
			c-0.307-0.202-0.659-0.369-1.052-0.504c-0.394-0.135-0.792-0.25-1.195-0.346l-2.333-0.519c-0.596-0.153-1.143-0.332-1.642-0.533
			c-0.5-0.202-0.937-0.451-1.311-0.749c-0.375-0.298-0.667-0.662-0.879-1.095c-0.212-0.432-0.317-0.965-0.317-1.598
			c0-0.749,0.168-1.392,0.504-1.931c0.335-0.537,0.773-0.969,1.311-1.296c0.538-0.326,1.138-0.566,1.8-0.721
			c0.663-0.152,1.32-0.229,1.973-0.229c0.749,0,1.445,0.096,2.088,0.287c0.644,0.192,1.211,0.489,1.7,0.893
			c0.49,0.404,0.878,0.903,1.166,1.498c0.289,0.597,0.451,1.297,0.489,2.103h-1.813
			C344.359,454.781,344.243,454.297,344.033,453.883z"/>
		<path style="fill:#8C9799;" d="M351.003,450.988v2.506h0.086c0.48-0.922,1.109-1.642,1.887-2.161
			c0.778-0.518,1.772-0.776,2.982-0.776c0.979,0,1.867,0.24,2.664,0.72c0.797,0.48,1.33,1.209,1.599,2.189
			c0.442-0.979,1.094-1.708,1.959-2.189c0.864-0.479,1.786-0.72,2.765-0.72c3.284,0,4.926,1.737,4.926,5.213v10.082h-1.815v-9.995
			c0-1.229-0.26-2.165-0.777-2.81c-0.519-0.643-1.432-0.964-2.737-0.964c-0.788,0-1.44,0.148-1.958,0.446
			c-0.519,0.298-0.932,0.696-1.239,1.195c-0.308,0.5-0.523,1.071-0.648,1.714c-0.125,0.644-0.188,1.311-0.188,2.002v8.411h-1.815
			V455.77c0-0.499-0.052-0.974-0.158-1.425c-0.105-0.451-0.278-0.846-0.518-1.182c-0.241-0.336-0.561-0.601-0.965-0.792
			c-0.404-0.191-0.894-0.288-1.47-0.288c-0.768,0-1.435,0.139-2.001,0.417c-0.567,0.279-1.027,0.663-1.383,1.152
			c-0.355,0.49-0.62,1.066-0.792,1.728c-0.173,0.663-0.26,1.388-0.26,2.175v8.296h-1.815v-14.863H351.003z"/>
		<path style="fill:#8C9799;" d="M373.7,453.292c0.308-0.633,0.725-1.151,1.253-1.556c0.528-0.403,1.147-0.7,1.857-0.893
			c0.71-0.191,1.498-0.287,2.362-0.287c0.653,0,1.307,0.063,1.959,0.188c0.653,0.125,1.238,0.359,1.757,0.705
			c0.519,0.346,0.941,0.83,1.268,1.454c0.326,0.624,0.49,1.435,0.49,2.434v7.893c0,0.73,0.354,1.095,1.065,1.095
			c0.21,0,0.403-0.039,0.575-0.115v1.525c-0.211,0.04-0.398,0.068-0.561,0.087c-0.163,0.02-0.37,0.029-0.619,0.029
			c-0.46,0-0.832-0.063-1.11-0.188c-0.278-0.124-0.494-0.303-0.648-0.532c-0.153-0.23-0.254-0.505-0.302-0.821
			c-0.048-0.316-0.072-0.667-0.072-1.051h-0.057c-0.327,0.479-0.659,0.907-0.994,1.281c-0.336,0.374-0.71,0.686-1.123,0.936
			c-0.414,0.249-0.883,0.44-1.412,0.576c-0.528,0.133-1.157,0.201-1.887,0.201c-0.692,0-1.34-0.083-1.944-0.245
			c-0.605-0.162-1.133-0.422-1.585-0.777c-0.451-0.355-0.806-0.808-1.066-1.355c-0.259-0.547-0.388-1.194-0.388-1.943
			c0-1.037,0.23-1.849,0.69-2.435c0.462-0.585,1.071-1.032,1.83-1.34c0.758-0.307,1.613-0.522,2.564-0.647
			c0.95-0.125,1.915-0.245,2.894-0.36c0.385-0.038,0.72-0.087,1.009-0.144c0.288-0.058,0.528-0.159,0.72-0.303
			c0.192-0.144,0.341-0.341,0.447-0.591c0.105-0.249,0.159-0.576,0.159-0.979c0-0.614-0.101-1.118-0.303-1.513
			c-0.201-0.393-0.48-0.705-0.834-0.936c-0.356-0.229-0.769-0.389-1.239-0.475c-0.471-0.087-0.975-0.13-1.513-0.13
			c-1.152,0-2.093,0.273-2.822,0.82c-0.731,0.548-1.114,1.427-1.152,2.636h-1.815C373.21,454.676,373.393,453.927,373.7,453.292z
			 M382.773,457.729c-0.114,0.211-0.335,0.365-0.662,0.461c-0.327,0.097-0.616,0.163-0.865,0.201
			c-0.768,0.135-1.561,0.256-2.376,0.36c-0.817,0.105-1.561,0.264-2.233,0.476c-0.672,0.211-1.224,0.514-1.655,0.907
			c-0.433,0.394-0.648,0.955-0.648,1.685c0,0.462,0.091,0.869,0.273,1.225c0.183,0.357,0.427,0.662,0.735,0.922
			c0.307,0.259,0.663,0.456,1.066,0.591c0.403,0.134,0.815,0.201,1.238,0.201c0.692,0,1.355-0.105,1.988-0.317
			c0.633-0.21,1.185-0.518,1.656-0.921c0.47-0.404,0.844-0.894,1.123-1.47c0.278-0.575,0.418-1.228,0.418-1.959v-2.361H382.773z"/>
		<path style="fill:#8C9799;" d="M389.947,450.988v3.485h0.058c0.46-1.21,1.176-2.141,2.147-2.794
			c0.969-0.652,2.126-0.95,3.47-0.893v1.815c-0.826-0.039-1.574,0.071-2.246,0.331c-0.673,0.26-1.253,0.629-1.743,1.108
			c-0.49,0.48-0.869,1.052-1.138,1.714c-0.27,0.663-0.403,1.388-0.403,2.176v7.921h-1.815v-14.863H389.947z"/>
		<path style="fill:#8C9799;" d="M403.254,450.988v1.526h-3.024v10.023c0,0.597,0.081,1.062,0.245,1.398
			c0.162,0.337,0.571,0.524,1.224,0.563c0.518,0,1.037-0.029,1.555-0.086v1.525c-0.27,0-0.539,0.01-0.806,0.029
			c-0.27,0.019-0.539,0.028-0.808,0.028c-1.209,0-2.055-0.234-2.535-0.705c-0.48-0.471-0.711-1.34-0.691-2.607v-10.169h-2.592
			v-1.526h2.592v-4.465h1.815v4.465H403.254z"/>
		<path style="fill:#8C9799;" d="M422.436,453.883c-0.21-0.412-0.493-0.753-0.848-1.022c-0.357-0.269-0.765-0.465-1.226-0.59
			c-0.46-0.125-0.95-0.188-1.469-0.188c-0.402,0-0.81,0.043-1.223,0.13c-0.415,0.086-0.794,0.23-1.141,0.432
			c-0.344,0.202-0.623,0.466-0.833,0.792c-0.213,0.326-0.316,0.729-0.316,1.21c0,0.403,0.1,0.744,0.302,1.022
			c0.2,0.279,0.454,0.515,0.763,0.706c0.307,0.191,0.643,0.35,1.009,0.475c0.364,0.125,0.7,0.227,1.008,0.303l2.42,0.548
			c0.519,0.076,1.031,0.216,1.541,0.418c0.509,0.201,0.959,0.466,1.353,0.792c0.393,0.325,0.715,0.73,0.965,1.209
			c0.25,0.48,0.375,1.047,0.375,1.699c0,0.807-0.184,1.494-0.548,2.06c-0.364,0.567-0.829,1.027-1.397,1.383
			c-0.566,0.355-1.206,0.609-1.914,0.764c-0.711,0.153-1.413,0.23-2.104,0.23c-1.746,0-3.163-0.413-4.249-1.239
			c-1.084-0.825-1.704-2.15-1.856-3.975h1.814c0.075,1.229,0.523,2.156,1.34,2.78c0.815,0.624,1.828,0.936,3.038,0.936
			c0.442,0,0.898-0.047,1.369-0.145c0.469-0.096,0.906-0.259,1.311-0.489c0.402-0.23,0.733-0.523,0.994-0.878
			c0.258-0.355,0.388-0.792,0.388-1.311c0-0.442-0.092-0.813-0.273-1.11c-0.184-0.297-0.427-0.547-0.735-0.748
			c-0.307-0.202-0.656-0.369-1.05-0.504c-0.395-0.135-0.792-0.25-1.196-0.346l-2.334-0.519c-0.594-0.153-1.142-0.332-1.642-0.533
			c-0.498-0.202-0.936-0.451-1.311-0.749c-0.373-0.298-0.667-0.662-0.878-1.095c-0.212-0.432-0.316-0.965-0.316-1.598
			c0-0.749,0.167-1.392,0.505-1.931c0.335-0.537,0.771-0.969,1.31-1.296c0.535-0.326,1.138-0.566,1.8-0.721
			c0.66-0.152,1.319-0.229,1.972-0.229c0.75,0,1.445,0.096,2.09,0.287c0.642,0.192,1.208,0.489,1.698,0.893
			c0.489,0.404,0.879,0.903,1.166,1.498c0.288,0.597,0.453,1.297,0.49,2.103h-1.815
			C422.764,454.781,422.649,454.297,422.436,453.883z"/>
		<path style="fill:#8C9799;" d="M429.406,450.988v2.822h0.059c0.423-1.036,1.108-1.839,2.061-2.404c0.95-0.566,2.03-0.85,3.24-0.85
			c1.132,0,2.117,0.211,2.953,0.633c0.835,0.423,1.531,0.994,2.088,1.714c0.556,0.72,0.969,1.556,1.237,2.507
			c0.269,0.95,0.404,1.953,0.404,3.01c0,1.057-0.136,2.059-0.404,3.01c-0.268,0.95-0.682,1.786-1.237,2.506
			c-0.557,0.721-1.253,1.287-2.088,1.7c-0.836,0.413-1.821,0.619-2.953,0.619c-0.537,0-1.075-0.068-1.612-0.201
			c-0.54-0.136-1.038-0.337-1.498-0.605c-0.461-0.269-0.869-0.605-1.226-1.009c-0.354-0.403-0.629-0.873-0.821-1.411h-0.056v8.296
			h-1.815v-20.336H429.406z M439.36,456.13c-0.184-0.758-0.471-1.436-0.864-2.03c-0.395-0.595-0.898-1.08-1.514-1.455
			c-0.614-0.374-1.354-0.562-2.217-0.562c-1,0-1.833,0.173-2.507,0.519c-0.673,0.346-1.21,0.807-1.612,1.383
			c-0.404,0.575-0.687,1.248-0.851,2.016c-0.162,0.769-0.243,1.575-0.243,2.42c0,0.767,0.09,1.531,0.272,2.29
			c0.182,0.759,0.479,1.436,0.892,2.03c0.415,0.597,0.953,1.081,1.615,1.455c0.663,0.375,1.474,0.561,2.434,0.561
			c0.863,0,1.603-0.186,2.217-0.561c0.615-0.374,1.119-0.858,1.514-1.455c0.393-0.595,0.681-1.271,0.864-2.03
			c0.182-0.759,0.273-1.522,0.273-2.29C439.634,457.652,439.542,456.889,439.36,456.13z"/>
		<path style="fill:#8C9799;" d="M445.611,460.94c0.182,0.701,0.476,1.33,0.877,1.887c0.404,0.558,0.913,1.018,1.527,1.383
			c0.615,0.364,1.354,0.547,2.218,0.547c1.325,0,2.362-0.345,3.11-1.037c0.75-0.691,1.27-1.612,1.557-2.765h1.814
			c-0.385,1.689-1.089,2.995-2.116,3.917c-1.029,0.922-2.484,1.383-4.365,1.383c-1.172,0-2.185-0.206-3.038-0.619
			c-0.854-0.413-1.553-0.979-2.088-1.7c-0.54-0.72-0.938-1.556-1.196-2.506c-0.261-0.95-0.39-1.953-0.39-3.01
			c0-0.98,0.129-1.94,0.39-2.881c0.259-0.94,0.656-1.78,1.196-2.52c0.535-0.74,1.233-1.335,2.088-1.786
			c0.854-0.451,1.866-0.677,3.038-0.677c1.191,0,2.208,0.24,3.055,0.72c0.844,0.48,1.529,1.109,2.059,1.887
			c0.526,0.778,0.906,1.671,1.138,2.679c0.23,1.008,0.327,2.031,0.287,3.068h-11.436
			C445.336,459.563,445.428,460.239,445.611,460.94z M454.599,455.396c-0.222-0.634-0.534-1.196-0.938-1.686
			c-0.401-0.489-0.892-0.883-1.469-1.181c-0.575-0.298-1.229-0.446-1.958-0.446c-0.748,0-1.411,0.148-1.988,0.446
			c-0.575,0.298-1.064,0.691-1.469,1.181c-0.402,0.489-0.726,1.057-0.965,1.7c-0.239,0.643-0.398,1.302-0.476,1.973h9.621
			C454.938,456.691,454.817,456.029,454.599,455.396z"/>
		<path style="fill:#8C9799;" d="M460.56,460.94c0.182,0.701,0.476,1.33,0.88,1.887c0.401,0.558,0.91,1.018,1.524,1.383
			c0.615,0.364,1.354,0.547,2.22,0.547c1.325,0,2.36-0.345,3.11-1.037c0.748-0.691,1.268-1.612,1.555-2.765h1.814
			c-0.383,1.689-1.089,2.995-2.116,3.917c-1.027,0.922-2.482,1.383-4.363,1.383c-1.171,0-2.186-0.206-3.04-0.619
			c-0.854-0.413-1.551-0.979-2.088-1.7c-0.538-0.72-0.936-1.556-1.196-2.506c-0.259-0.95-0.388-1.953-0.388-3.01
			c0-0.98,0.129-1.94,0.388-2.881c0.261-0.94,0.658-1.78,1.196-2.52c0.537-0.74,1.233-1.335,2.088-1.786
			c0.854-0.451,1.869-0.677,3.04-0.677c1.189,0,2.206,0.24,3.053,0.72c0.846,0.48,1.531,1.109,2.061,1.887
			c0.527,0.778,0.906,1.671,1.138,2.679c0.228,1.008,0.325,2.031,0.287,3.068h-11.435
			C460.287,459.563,460.376,460.239,460.56,460.94z M469.547,455.396c-0.222-0.634-0.534-1.196-0.936-1.686
			c-0.404-0.489-0.895-0.883-1.47-1.181c-0.577-0.298-1.23-0.446-1.958-0.446c-0.75,0-1.413,0.148-1.988,0.446
			c-0.577,0.298-1.066,0.691-1.469,1.181c-0.404,0.489-0.726,1.057-0.965,1.7c-0.241,0.643-0.4,1.302-0.475,1.973h9.62
			C469.889,456.691,469.768,456.029,469.547,455.396z"/>
		<path style="fill:#8C9799;" d="M485.576,465.852v-2.823h-0.057c-0.191,0.48-0.475,0.922-0.85,1.325
			c-0.375,0.403-0.803,0.745-1.281,1.022c-0.482,0.278-0.994,0.494-1.542,0.648c-0.546,0.153-1.09,0.23-1.628,0.23
			c-1.133,0-2.116-0.206-2.952-0.619c-0.836-0.413-1.531-0.979-2.088-1.7c-0.557-0.72-0.969-1.556-1.237-2.506
			c-0.271-0.95-0.404-1.953-0.404-3.01c0-1.057,0.133-2.06,0.404-3.01c0.269-0.951,0.681-1.787,1.237-2.507
			c0.557-0.72,1.252-1.291,2.088-1.714c0.836-0.422,1.819-0.633,2.952-0.633c0.557,0,1.1,0.067,1.628,0.2
			c0.529,0.136,1.022,0.342,1.483,0.62c0.46,0.278,0.869,0.619,1.226,1.022c0.353,0.403,0.627,0.874,0.82,1.411h0.057v-8.526h1.815
			v20.567H485.576z M475.625,460.71c0.183,0.759,0.471,1.436,0.864,2.03c0.393,0.597,0.898,1.081,1.513,1.455
			c0.615,0.375,1.354,0.561,2.217,0.561c0.961,0,1.771-0.186,2.434-0.561c0.663-0.374,1.201-0.858,1.615-1.455
			c0.413-0.595,0.709-1.271,0.892-2.03c0.184-0.759,0.273-1.522,0.273-2.29c0-0.768-0.09-1.531-0.273-2.29
			c-0.183-0.758-0.478-1.436-0.892-2.03c-0.414-0.595-0.952-1.08-1.615-1.455c-0.662-0.374-1.473-0.562-2.434-0.562
			c-0.862,0-1.602,0.188-2.217,0.562c-0.614,0.375-1.119,0.86-1.513,1.455c-0.394,0.595-0.682,1.272-0.864,2.03
			c-0.182,0.759-0.273,1.522-0.273,2.29C475.352,459.188,475.443,459.951,475.625,460.71z"/>
	</g>
	<linearGradient id="SVGID_1_" gradientUnits="userSpaceOnUse" x1="646.3814" y1="76.3941" x2="110.8295" y2="601.2775">
		<stop  offset="0" style="stop-color:#00F2FF"/>
		<stop  offset="1" style="stop-color:#0094FF"/>
	</linearGradient>
	<path style="fill:url(#SVGID_1_);" d="M522.678,244.357c-4.254-7.733-11.309-17.82-16.821-25.172
		c-15.975,12.208-34.017,9.54-54.077,3.78c16.414-0.738,30.627-12.873,33.363-29.734c3.137-19.322-9.989-37.529-29.311-40.666
		c-19.323-3.136-37.529,9.986-40.666,29.308c-3.138,19.325,9.983,37.532,29.306,40.668c0.074,0.013,0.147,0.019,0.222,0.03
		c4.414,11.818-0.846,23.831-5.141,31.094c-0.49-16.181-5.271-35.059-27.457-41.924c-1-0.309-1.978-0.605-2.949-0.894
		c-25.103-5.163-52.633-4.556-82.53,17.702c2.018,7.645,4.591,19.42,7.139,27.354c20.725-8.123,32.983-5.672,46.057,5.492
		c-8.62,34.422-14.545,51.354-61.18,45.095c-1.418,7.976-4.36,20.724-6.619,28.766c39.094,15.166,82.353,15.717,106.511-3.785
		c18.826,8.716,38.867,13.942,39.753,52.705c11.921,0,22.707,0,38.584,0c2.839-72.058-24.384-87.979-54.025-109.729
		C459.255,278.526,495.925,283.065,522.678,244.357z"/>
</g>
</svg>
